<svg width="62" height="62" viewBox="0 0 62 62" fill="none" xmlns="http://www.w3.org/2000/svg">
<circle cx="31" cy="31" r="31" fill="#005DCC"/>
<path opacity="0.4" d="M31.0007 47.6668C40.2054 47.6668 47.6673 40.2049 47.6673 31.0002C47.6673 21.7954 40.2054 14.3335 31.0007 14.3335C21.7959 14.3335 14.334 21.7954 14.334 31.0002C14.334 40.2049 21.7959 47.6668 31.0007 47.6668Z" fill="white"/>
<path d="M31 33.9168C31.6833 33.9168 32.25 33.3502 32.25 32.6668V24.3335C32.25 23.6502 31.6833 23.0835 31 23.0835C30.3167 23.0835 29.75 23.6502 29.75 24.3335V32.6668C29.75 33.3502 30.3167 33.9168 31 33.9168Z" fill="white"/>
<path d="M32.534 37.0333C32.4506 36.8333 32.334 36.65 32.184 36.4833C32.0173 36.3333 31.834 36.2166 31.634 36.1333C31.234 35.9666 30.7673 35.9666 30.3673 36.1333C30.1673 36.2166 29.984 36.3333 29.8173 36.4833C29.6673 36.65 29.5507 36.8333 29.4673 37.0333C29.384 37.2333 29.334 37.45 29.334 37.6666C29.334 37.8833 29.384 38.1 29.4673 38.3C29.5507 38.5166 29.6673 38.6833 29.8173 38.85C29.984 39 30.1673 39.1166 30.3673 39.2C30.5673 39.2833 30.784 39.3333 31.0007 39.3333C31.2173 39.3333 31.434 39.2833 31.634 39.2C31.834 39.1166 32.0173 39 32.184 38.85C32.334 38.6833 32.4506 38.5166 32.534 38.3C32.6173 38.1 32.6673 37.8833 32.6673 37.6666C32.6673 37.45 32.6173 37.2333 32.534 37.0333Z" fill="white"/>
</svg>
