<svg width="753" height="617" viewBox="0 0 753 617" fill="none" xmlns="http://www.w3.org/2000/svg">
<g filter="url(#filter0_d_0_1)">
<g clip-path="url(#clip0_0_1)">
<rect x="82" y="120" width="431" height="217" rx="12" fill="url(#paint0_linear_0_1)" fill-opacity="0.2" shape-rendering="crispEdges"/>
<rect x="155" y="193" width="161" height="102" rx="12" fill="url(#paint1_radial_0_1)" fill-opacity="0.25"/>
<circle cx="181" cy="219" r="12" fill="#C4C4C4"/>
<path d="M177.801 268.594H176.195V267.07C174.516 266.961 173.184 266.477 172.199 265.617C171.223 264.758 170.73 263.648 170.723 262.289H173.207C173.27 262.984 173.562 263.562 174.086 264.023C174.617 264.477 175.32 264.754 176.195 264.855V259.512L175.152 259.242C173.84 258.906 172.836 258.355 172.141 257.59C171.453 256.816 171.109 255.859 171.109 254.719C171.109 253.367 171.559 252.27 172.457 251.426C173.363 250.574 174.609 250.074 176.195 249.926V248.309H177.801V249.926C179.316 250.059 180.535 250.555 181.457 251.414C182.379 252.273 182.859 253.355 182.898 254.66H180.449C180.426 254.012 180.172 253.461 179.688 253.008C179.203 252.547 178.574 252.27 177.801 252.176V257.227L178.891 257.473C180.359 257.832 181.445 258.391 182.148 259.148C182.859 259.906 183.215 260.891 183.215 262.102C183.215 263.531 182.742 264.68 181.797 265.547C180.852 266.406 179.52 266.91 177.801 267.059V268.594ZM180.719 262.371C180.719 261.699 180.48 261.156 180.004 260.742C179.535 260.328 178.801 260.02 177.801 259.816V264.879C178.73 264.824 179.449 264.578 179.957 264.141C180.465 263.703 180.719 263.113 180.719 262.371ZM173.617 254.508C173.617 255.109 173.836 255.613 174.273 256.02C174.711 256.426 175.352 256.715 176.195 256.887V252.164C175.445 252.203 174.828 252.445 174.344 252.891C173.859 253.328 173.617 253.867 173.617 254.508ZM193.347 267V263.73H185.097V261.293C186.409 258.895 188.757 255.16 192.14 250.09H195.878V261.387H198.21V263.73H195.878V267H193.347ZM187.616 261.281V261.445H193.382V252.398H193.23C191.245 255.273 189.374 258.234 187.616 261.281ZM201.147 271.418H199.366L200.455 264.469H203.092L201.147 271.418ZM205.361 254.977C205.361 253.422 205.892 252.152 206.955 251.168C208.017 250.176 209.38 249.68 211.045 249.68C212.654 249.68 213.986 250.137 215.041 251.051C216.095 251.965 216.623 253.117 216.623 254.508C216.623 255.406 216.357 256.297 215.826 257.18C215.302 258.055 214.334 259.207 212.92 260.637L209.158 264.445V264.645H216.892V267H205.502V265.102L211.22 259.148C212.345 257.977 213.095 257.094 213.47 256.5C213.845 255.898 214.033 255.285 214.033 254.66C214.033 253.887 213.74 253.242 213.154 252.727C212.568 252.211 211.838 251.953 210.963 251.953C210.033 251.953 209.279 252.23 208.701 252.785C208.13 253.34 207.845 254.07 207.845 254.977V255.012H205.361V254.977ZM226.614 267V263.73H218.364V261.293C219.677 258.895 222.024 255.16 225.407 250.09H229.145V261.387H231.477V263.73H229.145V267H226.614ZM220.884 261.281V261.445H226.649V252.398H226.497C224.513 255.273 222.641 258.234 220.884 261.281ZM233.336 254.977C233.336 253.422 233.867 252.152 234.93 251.168C235.992 250.176 237.355 249.68 239.02 249.68C240.629 249.68 241.961 250.137 243.016 251.051C244.07 251.965 244.598 253.117 244.598 254.508C244.598 255.406 244.332 256.297 243.801 257.18C243.277 258.055 242.309 259.207 240.895 260.637L237.133 264.445V264.645H244.867V267H233.477V265.102L239.195 259.148C240.32 257.977 241.07 257.094 241.445 256.5C241.82 255.898 242.008 255.285 242.008 254.66C242.008 253.887 241.715 253.242 241.129 252.727C240.543 252.211 239.812 251.953 238.938 251.953C238.008 251.953 237.254 252.23 236.676 252.785C236.105 253.34 235.82 254.07 235.82 254.977V255.012H233.336V254.977ZM249.995 266.695C249.667 267.031 249.257 267.199 248.765 267.199C248.273 267.199 247.863 267.031 247.534 266.695C247.206 266.359 247.042 265.945 247.042 265.453C247.042 264.961 247.206 264.547 247.534 264.211C247.863 263.875 248.273 263.707 248.765 263.707C249.257 263.707 249.667 263.875 249.995 264.211C250.323 264.547 250.488 264.961 250.488 265.453C250.488 265.945 250.323 266.359 249.995 266.695ZM256.166 259.406V257.238H258.217C259.123 257.238 259.862 256.988 260.432 256.488C261.002 255.988 261.287 255.34 261.287 254.543C261.287 253.754 261.01 253.125 260.455 252.656C259.901 252.18 259.162 251.941 258.241 251.941C257.319 251.941 256.573 252.18 256.002 252.656C255.44 253.133 255.123 253.789 255.053 254.625H252.557C252.643 253.094 253.202 251.887 254.233 251.004C255.264 250.121 256.627 249.68 258.323 249.68C259.893 249.68 261.209 250.109 262.272 250.969C263.342 251.82 263.877 252.883 263.877 254.156C263.877 255.148 263.604 255.996 263.057 256.699C262.518 257.402 261.784 257.859 260.854 258.07V258.27C262.002 258.402 262.909 258.84 263.573 259.582C264.237 260.316 264.569 261.25 264.569 262.383C264.569 263.328 264.299 264.184 263.76 264.949C263.221 265.715 262.475 266.316 261.522 266.754C260.577 267.191 259.526 267.41 258.37 267.41C256.596 267.41 255.147 266.953 254.022 266.039C252.905 265.125 252.307 263.914 252.229 262.406H254.748C254.834 263.227 255.202 263.879 255.85 264.363C256.506 264.848 257.346 265.09 258.37 265.09C259.401 265.09 260.245 264.824 260.901 264.293C261.557 263.762 261.885 263.078 261.885 262.242C261.885 261.367 261.565 260.676 260.924 260.168C260.284 259.66 259.409 259.406 258.299 259.406H256.166ZM266.556 254.977C266.556 253.422 267.088 252.152 268.15 251.168C269.213 250.176 270.576 249.68 272.24 249.68C273.849 249.68 275.181 250.137 276.236 251.051C277.291 251.965 277.818 253.117 277.818 254.508C277.818 255.406 277.552 256.297 277.021 257.18C276.498 258.055 275.529 259.207 274.115 260.637L270.353 264.445V264.645H278.088V267H266.697V265.102L272.416 259.148C273.541 257.977 274.291 257.094 274.666 256.5C275.041 255.898 275.228 255.285 275.228 254.66C275.228 253.887 274.935 253.242 274.349 252.727C273.763 252.211 273.033 251.953 272.158 251.953C271.228 251.953 270.474 252.23 269.896 252.785C269.326 253.34 269.041 254.07 269.041 254.977V255.012H266.556V254.977Z" fill="white"/>
<path d="M201.796 214.136V220.466C201.796 221.168 202.012 221.733 202.445 222.161C202.883 222.59 203.487 222.804 204.257 222.804C205.032 222.804 205.635 222.59 206.068 222.161C206.506 221.733 206.725 221.168 206.725 220.466V214.136H208.256V220.603C208.256 221.687 207.894 222.564 207.169 223.234C206.449 223.904 205.478 224.239 204.257 224.239C203.035 224.239 202.065 223.904 201.345 223.234C200.625 222.564 200.265 221.687 200.265 220.603V214.136H201.796ZM210.006 221.348H211.524C211.588 221.817 211.831 222.191 212.255 222.469C212.684 222.742 213.228 222.879 213.889 222.879C214.504 222.879 215.012 222.738 215.413 222.455C215.819 222.168 216.022 221.806 216.022 221.368C216.022 220.994 215.871 220.689 215.571 220.452C215.274 220.211 214.798 220.012 214.142 219.857L212.87 219.55C211.977 219.34 211.321 219.014 210.902 218.572C210.482 218.13 210.273 217.547 210.273 216.822C210.273 215.943 210.601 215.236 211.257 214.703C211.918 214.165 212.786 213.896 213.862 213.896C214.864 213.896 215.696 214.161 216.357 214.689C217.018 215.218 217.371 215.897 217.416 216.727H215.926C215.853 216.271 215.63 215.911 215.256 215.646C214.887 215.382 214.415 215.25 213.841 215.25C213.235 215.25 212.747 215.384 212.378 215.653C212.009 215.922 211.824 216.278 211.824 216.72C211.824 217.071 211.963 217.355 212.241 217.574C212.524 217.793 212.987 217.978 213.629 218.128L214.716 218.395C215.728 218.632 216.457 218.969 216.904 219.406C217.35 219.839 217.574 220.427 217.574 221.17C217.574 222.113 217.232 222.861 216.548 223.412C215.865 223.964 214.939 224.239 213.773 224.239C212.679 224.239 211.79 223.977 211.107 223.453C210.428 222.929 210.061 222.227 210.006 221.348ZM219.31 214.136H222.872C224.335 214.136 225.474 214.566 226.29 215.428C227.105 216.285 227.513 217.488 227.513 219.037C227.513 220.614 227.108 221.835 226.296 222.701C225.485 223.567 224.344 224 222.872 224H219.31V214.136ZM220.841 215.53V222.605H222.701C223.735 222.605 224.535 222.298 225.1 221.683C225.67 221.063 225.955 220.188 225.955 219.058C225.955 217.946 225.668 217.08 225.093 216.46C224.524 215.84 223.726 215.53 222.701 215.53H220.841ZM242.368 216.556L240.324 224H238.8L237.262 218.518H237.146L235.614 224H234.104L232.053 216.556H233.543L234.876 222.236H234.985L236.517 216.556H237.925L239.456 222.236H239.572L240.899 216.556H242.368ZM245.834 222.886C246.386 222.886 246.844 222.731 247.208 222.421C247.578 222.111 247.762 221.724 247.762 221.259V220.637L245.944 220.753C245.433 220.785 245.057 220.89 244.816 221.067C244.574 221.245 244.454 221.498 244.454 221.826C244.454 222.154 244.581 222.414 244.836 222.605C245.092 222.792 245.424 222.886 245.834 222.886ZM245.458 224.123C244.729 224.123 244.132 223.92 243.667 223.515C243.207 223.104 242.977 222.564 242.977 221.895C242.977 221.229 243.216 220.707 243.695 220.329C244.173 219.946 244.857 219.728 245.746 219.673L247.762 219.557V218.914C247.762 218.518 247.632 218.215 247.372 218.005C247.113 217.791 246.734 217.684 246.238 217.684C245.828 217.684 245.486 217.757 245.212 217.902C244.943 218.044 244.768 218.246 244.686 218.511H243.264C243.337 217.873 243.649 217.365 244.201 216.986C244.757 216.604 245.458 216.412 246.306 216.412C247.236 216.412 247.954 216.633 248.459 217.075C248.97 217.513 249.225 218.126 249.225 218.914V224H247.81V222.954H247.694C247.47 223.328 247.163 223.617 246.771 223.822C246.384 224.023 245.946 224.123 245.458 224.123ZM251.105 224V213.65H252.575V224H251.105ZM254.571 224V213.65H256.041V224H254.571ZM262.33 218.189C262.002 217.839 261.567 217.663 261.025 217.663C260.482 217.663 260.036 217.839 259.685 218.189C259.334 218.54 259.138 219.007 259.097 219.591H262.857C262.838 219.003 262.663 218.536 262.33 218.189ZM262.85 221.99H264.265C264.096 222.66 263.727 223.187 263.157 223.569C262.592 223.952 261.886 224.144 261.038 224.144C259.972 224.144 259.131 223.802 258.516 223.118C257.905 222.43 257.6 221.491 257.6 220.302C257.6 219.112 257.91 218.167 258.53 217.465C259.149 216.763 259.983 216.412 261.031 216.412C262.066 216.412 262.877 216.745 263.465 217.41C264.058 218.076 264.354 218.994 264.354 220.165V220.678H259.097V220.76C259.12 221.416 259.309 221.936 259.664 222.318C260.02 222.701 260.491 222.893 261.079 222.893C261.977 222.893 262.567 222.592 262.85 221.99ZM266.357 214.703H267.827V216.59H269.44V217.827H267.827V221.655C267.827 222.043 267.911 222.327 268.08 222.51C268.248 222.688 268.515 222.776 268.879 222.776C269.025 222.776 269.212 222.765 269.44 222.742V223.966C269.148 224.016 268.882 224.041 268.64 224.041C267.824 224.041 267.239 223.886 266.883 223.576C266.532 223.266 266.357 222.751 266.357 222.031V217.827H265.174V216.59H266.357V214.703Z" fill="white"/>
<rect x="155.5" y="193.5" width="160" height="101" rx="11.5" stroke="url(#paint2_radial_0_1)" stroke-opacity="0.25"/>
<rect x="-18" y="193" width="161" height="102" rx="12" fill="url(#paint3_radial_0_1)" fill-opacity="0.25"/>
<path d="M4.80078 268.594H3.19531V267.07C1.51562 266.961 0.183594 266.477 -0.800781 265.617C-1.77734 264.758 -2.26953 263.648 -2.27734 262.289H0.207031C0.269531 262.984 0.5625 263.562 1.08594 264.023C1.61719 264.477 2.32031 264.754 3.19531 264.855V259.512L2.15234 259.242C0.839844 258.906 -0.164062 258.355 -0.859375 257.59C-1.54688 256.816 -1.89062 255.859 -1.89062 254.719C-1.89062 253.367 -1.44141 252.27 -0.542969 251.426C0.363281 250.574 1.60938 250.074 3.19531 249.926V248.309H4.80078V249.926C6.31641 250.059 7.53516 250.555 8.45703 251.414C9.37891 252.273 9.85938 253.355 9.89844 254.66H7.44922C7.42578 254.012 7.17188 253.461 6.6875 253.008C6.20312 252.547 5.57422 252.27 4.80078 252.176V257.227L5.89062 257.473C7.35938 257.832 8.44531 258.391 9.14844 259.148C9.85938 259.906 10.2148 260.891 10.2148 262.102C10.2148 263.531 9.74219 264.68 8.79688 265.547C7.85156 266.406 6.51953 266.91 4.80078 267.059V268.594ZM7.71875 262.371C7.71875 261.699 7.48047 261.156 7.00391 260.742C6.53516 260.328 5.80078 260.02 4.80078 259.816V264.879C5.73047 264.824 6.44922 264.578 6.95703 264.141C7.46484 263.703 7.71875 263.113 7.71875 262.371ZM0.617188 254.508C0.617188 255.109 0.835938 255.613 1.27344 256.02C1.71094 256.426 2.35156 256.715 3.19531 256.887V252.164C2.44531 252.203 1.82812 252.445 1.34375 252.891C0.859375 253.328 0.617188 253.867 0.617188 254.508ZM20.3469 267V263.73H12.0969V261.293C13.4094 258.895 15.757 255.16 19.1398 250.09H22.8781V261.387H25.2102V263.73H22.8781V267H20.3469ZM14.6164 261.281V261.445H20.382V252.398H20.2297C18.2453 255.273 16.3742 258.234 14.6164 261.281ZM28.1469 271.418H26.3656L27.4555 264.469H30.0922L28.1469 271.418ZM32.3609 254.977C32.3609 253.422 32.8922 252.152 33.9547 251.168C35.0172 250.176 36.3805 249.68 38.0445 249.68C39.6539 249.68 40.9859 250.137 42.0406 251.051C43.0953 251.965 43.6227 253.117 43.6227 254.508C43.6227 255.406 43.357 256.297 42.8258 257.18C42.3023 258.055 41.3336 259.207 39.9195 260.637L36.1578 264.445V264.645H43.8922V267H32.5016V265.102L38.2203 259.148C39.3453 257.977 40.0953 257.094 40.4703 256.5C40.8453 255.898 41.0328 255.285 41.0328 254.66C41.0328 253.887 40.7398 253.242 40.1539 252.727C39.568 252.211 38.8375 251.953 37.9625 251.953C37.0328 251.953 36.2789 252.23 35.7008 252.785C35.1305 253.34 34.8453 254.07 34.8453 254.977V255.012H32.3609V254.977ZM53.6141 267V263.73H45.3641V261.293C46.6766 258.895 49.0242 255.16 52.407 250.09H56.1453V261.387H58.4773V263.73H56.1453V267H53.6141ZM47.8836 261.281V261.445H53.6492V252.398H53.4969C51.5125 255.273 49.6414 258.234 47.8836 261.281ZM60.3359 254.977C60.3359 253.422 60.8672 252.152 61.9297 251.168C62.9922 250.176 64.3555 249.68 66.0195 249.68C67.6289 249.68 68.9609 250.137 70.0156 251.051C71.0703 251.965 71.5977 253.117 71.5977 254.508C71.5977 255.406 71.332 256.297 70.8008 257.18C70.2773 258.055 69.3086 259.207 67.8945 260.637L64.1328 264.445V264.645H71.8672V267H60.4766V265.102L66.1953 259.148C67.3203 257.977 68.0703 257.094 68.4453 256.5C68.8203 255.898 69.0078 255.285 69.0078 254.66C69.0078 253.887 68.7148 253.242 68.1289 252.727C67.543 252.211 66.8125 251.953 65.9375 251.953C65.0078 251.953 64.2539 252.23 63.6758 252.785C63.1055 253.34 62.8203 254.07 62.8203 254.977V255.012H60.3359V254.977ZM76.9953 266.695C76.6672 267.031 76.257 267.199 75.7648 267.199C75.2727 267.199 74.8625 267.031 74.5344 266.695C74.2063 266.359 74.0422 265.945 74.0422 265.453C74.0422 264.961 74.2063 264.547 74.5344 264.211C74.8625 263.875 75.2727 263.707 75.7648 263.707C76.257 263.707 76.6672 263.875 76.9953 264.211C77.3234 264.547 77.4875 264.961 77.4875 265.453C77.4875 265.945 77.3234 266.359 76.9953 266.695ZM83.1664 259.406V257.238H85.2172C86.1234 257.238 86.8617 256.988 87.432 256.488C88.0023 255.988 88.2875 255.34 88.2875 254.543C88.2875 253.754 88.0102 253.125 87.4555 252.656C86.9008 252.18 86.1625 251.941 85.2406 251.941C84.3187 251.941 83.5727 252.18 83.0023 252.656C82.4398 253.133 82.1234 253.789 82.0531 254.625H79.557C79.643 253.094 80.2016 251.887 81.2328 251.004C82.2641 250.121 83.6273 249.68 85.3227 249.68C86.893 249.68 88.2094 250.109 89.2719 250.969C90.3422 251.82 90.8773 252.883 90.8773 254.156C90.8773 255.148 90.6039 255.996 90.057 256.699C89.518 257.402 88.7836 257.859 87.8539 258.07V258.27C89.0023 258.402 89.9086 258.84 90.5727 259.582C91.2367 260.316 91.5687 261.25 91.5687 262.383C91.5687 263.328 91.2992 264.184 90.7602 264.949C90.2211 265.715 89.475 266.316 88.5219 266.754C87.5766 267.191 86.5258 267.41 85.3695 267.41C83.5961 267.41 82.1469 266.953 81.0219 266.039C79.9047 265.125 79.307 263.914 79.2289 262.406H81.7484C81.8344 263.227 82.2016 263.879 82.85 264.363C83.5062 264.848 84.3461 265.09 85.3695 265.09C86.4008 265.09 87.2445 264.824 87.9008 264.293C88.557 263.762 88.8852 263.078 88.8852 262.242C88.8852 261.367 88.5648 260.676 87.9242 260.168C87.2836 259.66 86.4086 259.406 85.2992 259.406H83.1664ZM93.5563 254.977C93.5563 253.422 94.0875 252.152 95.15 251.168C96.2125 250.176 97.5758 249.68 99.2398 249.68C100.849 249.68 102.181 250.137 103.236 251.051C104.291 251.965 104.818 253.117 104.818 254.508C104.818 255.406 104.552 256.297 104.021 257.18C103.498 258.055 102.529 259.207 101.115 260.637L97.3531 264.445V264.645H105.088V267H93.6969V265.102L99.4156 259.148C100.541 257.977 101.291 257.094 101.666 256.5C102.041 255.898 102.228 255.285 102.228 254.66C102.228 253.887 101.935 253.242 101.349 252.727C100.763 252.211 100.033 251.953 99.1578 251.953C98.2281 251.953 97.4742 252.23 96.8961 252.785C96.3258 253.34 96.0406 254.07 96.0406 254.977V255.012H93.5563V254.977Z" fill="white"/>
<path d="M28.7959 214.136V220.466C28.7959 221.168 29.0124 221.733 29.4453 222.161C29.8828 222.59 30.4867 222.804 31.2568 222.804C32.0316 222.804 32.6354 222.59 33.0684 222.161C33.5059 221.733 33.7246 221.168 33.7246 220.466V214.136H35.2559V220.603C35.2559 221.687 34.8936 222.564 34.1689 223.234C33.4489 223.904 32.4782 224.239 31.2568 224.239C30.0355 224.239 29.0648 223.904 28.3447 223.234C27.6247 222.564 27.2646 221.687 27.2646 220.603V214.136H28.7959ZM37.0061 221.348H38.5237C38.5875 221.817 38.8313 222.191 39.2552 222.469C39.6835 222.742 40.2281 222.879 40.8889 222.879C41.5042 222.879 42.0123 222.738 42.4134 222.455C42.819 222.168 43.0218 221.806 43.0218 221.368C43.0218 220.994 42.8714 220.689 42.5706 220.452C42.2744 220.211 41.7981 220.012 41.1419 219.857L39.8704 219.55C38.9772 219.34 38.3209 219.014 37.9016 218.572C37.4824 218.13 37.2727 217.547 37.2727 216.822C37.2727 215.943 37.6009 215.236 38.2571 214.703C38.9179 214.165 39.7861 213.896 40.8616 213.896C41.8642 213.896 42.6959 214.161 43.3567 214.689C44.0175 215.218 44.3707 215.897 44.4163 216.727H42.9261C42.8531 216.271 42.6298 215.911 42.2561 215.646C41.887 215.382 41.4153 215.25 40.8411 215.25C40.235 215.25 39.7473 215.384 39.3782 215.653C39.0091 215.922 38.8245 216.278 38.8245 216.72C38.8245 217.071 38.9635 217.355 39.2415 217.574C39.524 217.793 39.9866 217.978 40.6292 218.128L41.7161 218.395C42.7278 218.632 43.457 218.969 43.9036 219.406C44.3502 219.839 44.5735 220.427 44.5735 221.17C44.5735 222.113 44.2317 222.861 43.5481 223.412C42.8645 223.964 41.9394 224.239 40.7727 224.239C39.679 224.239 38.7903 223.977 38.1067 223.453C37.4277 222.929 37.0608 222.227 37.0061 221.348ZM46.3101 214.136H49.8716C51.3345 214.136 52.4739 214.566 53.2896 215.428C54.1054 216.285 54.5132 217.488 54.5132 219.037C54.5132 220.614 54.1076 221.835 53.2964 222.701C52.4852 223.567 51.3436 224 49.8716 224H46.3101V214.136ZM47.8414 215.53V222.605H49.7007C50.7352 222.605 51.5351 222.298 52.1002 221.683C52.6698 221.063 52.9546 220.188 52.9546 219.058C52.9546 217.946 52.6675 217.08 52.0933 216.46C51.5237 215.84 50.7261 215.53 49.7007 215.53H47.8414ZM69.3683 216.556L67.3243 224H65.7999L64.2618 218.518H64.1456L62.6144 224H61.1036L59.0529 216.556H60.5431L61.8761 222.236H61.9855L63.5167 216.556H64.9249L66.4562 222.236H66.5724L67.8986 216.556H69.3683ZM72.8344 222.886C73.3858 222.886 73.8438 222.731 74.2084 222.421C74.5775 222.111 74.7621 221.724 74.7621 221.259V220.637L72.9437 220.753C72.4333 220.785 72.0574 220.89 71.8158 221.067C71.5743 221.245 71.4535 221.498 71.4535 221.826C71.4535 222.154 71.5811 222.414 71.8363 222.605C72.0915 222.792 72.4242 222.886 72.8344 222.886ZM72.4584 224.123C71.7292 224.123 71.1322 223.92 70.6674 223.515C70.2071 223.104 69.977 222.564 69.977 221.895C69.977 221.229 70.2162 220.707 70.6947 220.329C71.1732 219.946 71.8568 219.728 72.7455 219.673L74.7621 219.557V218.914C74.7621 218.518 74.6322 218.215 74.3725 218.005C74.1127 217.791 73.7344 217.684 73.2377 217.684C72.8275 217.684 72.4857 217.757 72.2123 217.902C71.9434 218.044 71.768 218.246 71.6859 218.511H70.2641C70.337 217.873 70.6492 217.365 71.2006 216.986C71.7566 216.604 72.4584 216.412 73.3061 216.412C74.2357 216.412 74.9535 216.633 75.4594 217.075C75.9698 217.513 76.225 218.126 76.225 218.914V224H74.81V222.954H74.6937C74.4704 223.328 74.1628 223.617 73.7709 223.822C73.3835 224.023 72.946 224.123 72.4584 224.123ZM78.1052 224V213.65H79.5749V224H78.1052ZM81.5713 224V213.65H83.041V224H81.5713ZM89.3303 218.189C89.0022 217.839 88.567 217.663 88.0246 217.663C87.4823 217.663 87.0357 217.839 86.6848 218.189C86.3339 218.54 86.1379 219.007 86.0969 219.591H89.8567C89.8384 219.003 89.663 218.536 89.3303 218.189ZM89.8498 221.99H91.2649C91.0963 222.66 90.7271 223.187 90.1575 223.569C89.5924 223.952 88.886 224.144 88.0383 224.144C86.9719 224.144 86.1311 223.802 85.5159 223.118C84.9052 222.43 84.5998 221.491 84.5998 220.302C84.5998 219.112 84.9097 218.167 85.5295 217.465C86.1493 216.763 86.9833 216.412 88.0315 216.412C89.066 216.412 89.8772 216.745 90.4651 217.41C91.0575 218.076 91.3537 218.994 91.3537 220.165V220.678H86.0969V220.76C86.1197 221.416 86.3088 221.936 86.6643 222.318C87.0198 222.701 87.4914 222.893 88.0793 222.893C88.9771 222.893 89.5673 222.592 89.8498 221.99ZM93.357 214.703H94.8267V216.59H96.44V217.827H94.8267V221.655C94.8267 222.043 94.911 222.327 95.0796 222.51C95.2482 222.688 95.5148 222.776 95.8794 222.776C96.0253 222.776 96.2121 222.765 96.44 222.742V223.966C96.1483 224.016 95.8817 224.041 95.6402 224.041C94.8244 224.041 94.2388 223.886 93.8833 223.576C93.5324 223.266 93.357 222.751 93.357 222.031V217.827H92.1743V216.59H93.357V214.703Z" fill="white"/>
<rect x="-17.5" y="193.5" width="160" height="101" rx="11.5" stroke="url(#paint4_radial_0_1)" stroke-opacity="0.25"/>
<rect x="328" y="193" width="161" height="102" rx="12" fill="url(#paint5_radial_0_1)" fill-opacity="0.25"/>
<circle cx="354" cy="219" r="12" fill="#C4C4C4"/>
<path d="M349.758 267L350.695 262.406H347.145L346.207 267H344.215L345.141 262.406H342.434L342.82 260.32H345.551L346.324 256.582H343.5L343.898 254.508H346.723L347.648 250.09H349.641L348.75 254.508H352.289L353.203 250.09H355.207L354.305 254.508H357.164L356.789 256.582H353.895L353.098 260.32H356.074L355.699 262.406H352.711L351.773 267H349.758ZM347.461 260.438H351.141L351.973 256.465H348.281L347.461 260.438ZM357.956 254.977C357.956 253.422 358.488 252.152 359.55 251.168C360.613 250.176 361.976 249.68 363.64 249.68C365.249 249.68 366.581 250.137 367.636 251.051C368.691 251.965 369.218 253.117 369.218 254.508C369.218 255.406 368.952 256.297 368.421 257.18C367.898 258.055 366.929 259.207 365.515 260.637L361.753 264.445V264.645H369.488V267H358.097V265.102L363.816 259.148C364.941 257.977 365.691 257.094 366.066 256.5C366.441 255.898 366.628 255.285 366.628 254.66C366.628 253.887 366.335 253.242 365.749 252.727C365.163 252.211 364.433 251.953 363.558 251.953C362.628 251.953 361.874 252.23 361.296 252.785C360.726 253.34 360.441 254.07 360.441 254.977V255.012H357.956V254.977ZM377.709 267.41C375.733 267.41 374.194 266.633 373.092 265.078C371.998 263.523 371.452 261.34 371.452 258.527C371.452 255.738 372.002 253.566 373.104 252.012C374.205 250.457 375.741 249.68 377.709 249.68C379.663 249.68 381.19 250.461 382.291 252.023C383.393 253.578 383.944 255.754 383.944 258.551C383.944 261.355 383.397 263.535 382.303 265.09C381.209 266.637 379.678 267.41 377.709 267.41ZM375.038 263.414C375.663 264.547 376.553 265.113 377.709 265.113C378.866 265.113 379.752 264.551 380.37 263.426C380.987 262.293 381.295 260.66 381.295 258.527C381.295 256.418 380.983 254.801 380.358 253.676C379.733 252.543 378.85 251.977 377.709 251.977C376.569 251.977 375.682 252.543 375.049 253.676C374.416 254.809 374.1 256.426 374.1 258.527C374.1 260.652 374.413 262.281 375.038 263.414ZM386.681 271.418H384.9L385.99 264.469H388.627L386.681 271.418ZM390.895 254.977C390.895 253.422 391.427 252.152 392.489 251.168C393.552 250.176 394.915 249.68 396.579 249.68C398.188 249.68 399.52 250.137 400.575 251.051C401.63 251.965 402.157 253.117 402.157 254.508C402.157 255.406 401.891 256.297 401.36 257.18C400.837 258.055 399.868 259.207 398.454 260.637L394.692 264.445V264.645H402.427V267H391.036V265.102L396.755 259.148C397.88 257.977 398.63 257.094 399.005 256.5C399.38 255.898 399.567 255.285 399.567 254.66C399.567 253.887 399.274 253.242 398.688 252.727C398.102 252.211 397.372 251.953 396.497 251.953C395.567 251.953 394.813 252.23 394.235 252.785C393.665 253.34 393.38 254.07 393.38 254.977V255.012H390.895V254.977ZM412.148 267V263.73H403.898V261.293C405.211 258.895 407.559 255.16 410.941 250.09H414.68V261.387H417.012V263.73H414.68V267H412.148ZM406.418 261.281V261.445H412.184V252.398H412.031C410.047 255.273 408.176 258.234 406.418 261.281ZM424.87 267.41C423.191 267.41 421.808 266.941 420.722 266.004C419.636 265.066 419.054 263.855 418.976 262.371H421.472C421.573 263.191 421.937 263.852 422.562 264.352C423.187 264.852 423.964 265.102 424.894 265.102C425.948 265.102 426.8 264.781 427.448 264.141C428.097 263.5 428.421 262.652 428.421 261.598C428.421 260.543 428.097 259.688 427.448 259.031C426.8 258.367 425.96 258.035 424.929 258.035C424.21 258.035 423.566 258.188 422.995 258.492C422.425 258.797 421.976 259.223 421.648 259.77H419.245L420.136 250.09H430.003V252.434H422.187L421.741 257.391H421.941C422.738 256.367 423.929 255.855 425.515 255.855C427.124 255.855 428.437 256.387 429.452 257.449C430.476 258.504 430.988 259.863 430.988 261.527C430.988 263.277 430.421 264.695 429.288 265.781C428.163 266.867 426.691 267.41 424.87 267.41ZM435.366 266.695C435.037 267.031 434.627 267.199 434.135 267.199C433.643 267.199 433.233 267.031 432.905 266.695C432.577 266.359 432.412 265.945 432.412 265.453C432.412 264.961 432.577 264.547 432.905 264.211C433.233 263.875 433.643 263.707 434.135 263.707C434.627 263.707 435.037 263.875 435.366 264.211C435.694 264.547 435.858 264.961 435.858 265.453C435.858 265.945 435.694 266.359 435.366 266.695ZM443.517 267.41C441.541 267.41 440.002 266.633 438.9 265.078C437.806 263.523 437.259 261.34 437.259 258.527C437.259 255.738 437.81 253.566 438.912 252.012C440.013 250.457 441.548 249.68 443.517 249.68C445.47 249.68 446.998 250.461 448.099 252.023C449.201 253.578 449.752 255.754 449.752 258.551C449.752 261.355 449.205 263.535 448.111 265.09C447.017 266.637 445.486 267.41 443.517 267.41ZM440.845 263.414C441.47 264.547 442.361 265.113 443.517 265.113C444.673 265.113 445.56 264.551 446.177 263.426C446.795 262.293 447.103 260.66 447.103 258.527C447.103 256.418 446.791 254.801 446.166 253.676C445.541 252.543 444.658 251.977 443.517 251.977C442.377 251.977 441.49 252.543 440.857 253.676C440.224 254.809 439.908 256.426 439.908 258.527C439.908 260.652 440.22 262.281 440.845 263.414ZM457.903 267.41C455.927 267.41 454.387 266.633 453.286 265.078C452.192 263.523 451.645 261.34 451.645 258.527C451.645 255.738 452.196 253.566 453.298 252.012C454.399 250.457 455.934 249.68 457.903 249.68C459.856 249.68 461.384 250.461 462.485 252.023C463.587 253.578 464.137 255.754 464.137 258.551C464.137 261.355 463.591 263.535 462.497 265.09C461.403 266.637 459.872 267.41 457.903 267.41ZM455.231 263.414C455.856 264.547 456.747 265.113 457.903 265.113C459.059 265.113 459.946 264.551 460.563 263.426C461.18 262.293 461.489 260.66 461.489 258.527C461.489 256.418 461.177 254.801 460.552 253.676C459.927 252.543 459.044 251.977 457.903 251.977C456.762 251.977 455.876 252.543 455.243 253.676C454.61 254.809 454.294 256.426 454.294 258.527C454.294 260.652 454.606 262.281 455.231 263.414Z" fill="white"/>
<path d="M381.652 220.097C381.652 221.359 381.265 222.366 380.49 223.118C379.72 223.866 378.688 224.239 377.394 224.239C375.994 224.239 374.885 223.774 374.064 222.845C373.244 221.915 372.834 220.655 372.834 219.064C372.834 217.492 373.246 216.239 374.071 215.305C374.896 214.366 375.999 213.896 377.38 213.896C378.501 213.896 379.44 214.193 380.196 214.785C380.953 215.373 381.415 216.166 381.584 217.164H380.046C379.854 216.567 379.531 216.111 379.075 215.797C378.619 215.482 378.054 215.325 377.38 215.325C376.468 215.325 375.744 215.662 375.206 216.337C374.668 217.007 374.399 217.911 374.399 219.051C374.399 220.213 374.668 221.131 375.206 221.806C375.748 222.476 376.484 222.811 377.414 222.811C378.221 222.811 378.877 222.585 379.383 222.134C379.889 221.683 380.144 221.092 380.148 220.363V220.151H377.605V218.866H381.652V220.097ZM387.538 224H383.485V214.136H387.449C388.375 214.136 389.099 214.357 389.623 214.799C390.152 215.236 390.416 215.836 390.416 216.597C390.416 217.112 390.25 217.574 389.917 217.984C389.585 218.39 389.174 218.634 388.687 218.716V218.832C389.352 218.9 389.888 219.153 390.293 219.591C390.703 220.024 390.908 220.562 390.908 221.204C390.908 222.075 390.61 222.758 390.013 223.255C389.416 223.752 388.591 224 387.538 224ZM385.016 215.435V218.312H386.834C387.509 218.312 388.019 218.192 388.366 217.95C388.716 217.704 388.892 217.346 388.892 216.877C388.892 216.421 388.732 216.068 388.413 215.817C388.099 215.562 387.659 215.435 387.094 215.435H385.016ZM385.016 222.701H387.231C387.919 222.701 388.443 222.564 388.803 222.291C389.163 222.018 389.343 221.619 389.343 221.095C389.343 220.58 389.156 220.19 388.783 219.926C388.409 219.657 387.862 219.522 387.142 219.522H385.016V222.701ZM392.597 214.136H396.46C397.426 214.136 398.21 214.441 398.811 215.052C399.413 215.658 399.713 216.449 399.713 217.424C399.713 218.385 399.406 219.169 398.791 219.775C398.175 220.377 397.382 220.678 396.412 220.678H394.128V224H392.597V214.136ZM394.128 215.489V219.331H396.056C396.717 219.331 397.23 219.167 397.594 218.839C397.963 218.506 398.148 218.035 398.148 217.424C398.148 216.799 397.968 216.321 397.608 215.988C397.248 215.656 396.731 215.489 396.056 215.489H394.128ZM414.48 216.556L412.436 224H410.911L409.373 218.518H409.257L407.726 224H406.215L404.164 216.556H405.654L406.987 222.236H407.097L408.628 216.556H410.036L411.567 222.236H411.684L413.01 216.556H414.48ZM417.946 222.886C418.497 222.886 418.955 222.731 419.32 222.421C419.689 222.111 419.873 221.724 419.873 221.259V220.637L418.055 220.753C417.545 220.785 417.169 220.89 416.927 221.067C416.686 221.245 416.565 221.498 416.565 221.826C416.565 222.154 416.692 222.414 416.948 222.605C417.203 222.792 417.536 222.886 417.946 222.886ZM417.57 224.123C416.841 224.123 416.244 223.92 415.779 223.515C415.318 223.104 415.088 222.564 415.088 221.895C415.088 221.229 415.328 220.707 415.806 220.329C416.285 219.946 416.968 219.728 417.857 219.673L419.873 219.557V218.914C419.873 218.518 419.744 218.215 419.484 218.005C419.224 217.791 418.846 217.684 418.349 217.684C417.939 217.684 417.597 217.757 417.324 217.902C417.055 218.044 416.879 218.246 416.797 218.511H415.375C415.448 217.873 415.76 217.365 416.312 216.986C416.868 216.604 417.57 216.412 418.417 216.412C419.347 216.412 420.065 216.633 420.571 217.075C421.081 217.513 421.336 218.126 421.336 218.914V224H419.921V222.954H419.805C419.582 223.328 419.274 223.617 418.882 223.822C418.495 224.023 418.057 224.123 417.57 224.123ZM423.216 224V213.65H424.686V224H423.216ZM426.683 224V213.65H428.152V224H426.683ZM434.442 218.189C434.114 217.839 433.678 217.663 433.136 217.663C432.594 217.663 432.147 217.839 431.796 218.189C431.445 218.54 431.249 219.007 431.208 219.591H434.968C434.95 219.003 434.774 218.536 434.442 218.189ZM434.961 221.99H436.376C436.208 222.66 435.838 223.187 435.269 223.569C434.704 223.952 433.997 224.144 433.15 224.144C432.083 224.144 431.242 223.802 430.627 223.118C430.017 222.43 429.711 221.491 429.711 220.302C429.711 219.112 430.021 218.167 430.641 217.465C431.261 216.763 432.095 216.412 433.143 216.412C434.177 216.412 434.989 216.745 435.576 217.41C436.169 218.076 436.465 218.994 436.465 220.165V220.678H431.208V220.76C431.231 221.416 431.42 221.936 431.776 222.318C432.131 222.701 432.603 222.893 433.191 222.893C434.088 222.893 434.679 222.592 434.961 221.99ZM438.468 214.703H439.938V216.59H441.551V217.827H439.938V221.655C439.938 222.043 440.022 222.327 440.191 222.51C440.36 222.688 440.626 222.776 440.991 222.776C441.137 222.776 441.323 222.765 441.551 222.742V223.966C441.26 224.016 440.993 224.041 440.751 224.041C439.936 224.041 439.35 223.886 438.995 223.576C438.644 223.266 438.468 222.751 438.468 222.031V217.827H437.286V216.59H438.468V214.703Z" fill="white"/>
<rect x="328.5" y="193.5" width="160" height="101" rx="11.5" stroke="url(#paint6_radial_0_1)" stroke-opacity="0.25"/>
<path d="M115.756 152.658L112.738 163H110.668L106.869 148.908H109.145L111.732 159.699H111.869L114.809 148.908H116.84L119.799 159.699H119.936L122.514 148.908H124.789L120.98 163H118.92L115.893 152.658H115.756ZM128.594 161.408C129.382 161.408 130.036 161.187 130.557 160.744C131.084 160.301 131.348 159.748 131.348 159.084V158.195L128.75 158.361C128.021 158.407 127.484 158.557 127.139 158.811C126.794 159.064 126.621 159.426 126.621 159.895C126.621 160.363 126.803 160.734 127.168 161.008C127.533 161.275 128.008 161.408 128.594 161.408ZM128.057 163.176C127.015 163.176 126.162 162.886 125.498 162.307C124.84 161.721 124.512 160.949 124.512 159.992C124.512 159.042 124.854 158.296 125.537 157.756C126.221 157.209 127.197 156.896 128.467 156.818L131.348 156.652V155.734C131.348 155.168 131.162 154.735 130.791 154.436C130.42 154.13 129.88 153.977 129.17 153.977C128.584 153.977 128.096 154.081 127.705 154.289C127.321 154.491 127.07 154.781 126.953 155.158H124.922C125.026 154.247 125.472 153.521 126.26 152.98C127.054 152.434 128.057 152.16 129.268 152.16C130.596 152.16 131.621 152.476 132.344 153.107C133.073 153.732 133.438 154.608 133.438 155.734V163H131.416V161.506H131.25C130.931 162.04 130.492 162.453 129.932 162.746C129.378 163.033 128.753 163.176 128.057 163.176ZM135.523 163V148.215H137.623V163H135.523ZM139.875 163V148.215H141.975V163H139.875ZM150.359 154.699C149.891 154.198 149.269 153.947 148.494 153.947C147.719 153.947 147.081 154.198 146.58 154.699C146.079 155.201 145.799 155.868 145.74 156.701H151.111C151.085 155.861 150.835 155.194 150.359 154.699ZM151.102 160.129H153.123C152.882 161.086 152.355 161.838 151.541 162.385C150.734 162.932 149.725 163.205 148.514 163.205C146.99 163.205 145.789 162.717 144.91 161.74C144.038 160.757 143.602 159.416 143.602 157.717C143.602 156.018 144.044 154.667 144.93 153.664C145.815 152.661 147.007 152.16 148.504 152.16C149.982 152.16 151.141 152.635 151.98 153.586C152.827 154.536 153.25 155.848 153.25 157.521V158.254H145.74V158.371C145.773 159.309 146.043 160.051 146.551 160.598C147.059 161.145 147.732 161.418 148.572 161.418C149.855 161.418 150.698 160.988 151.102 160.129ZM155.512 149.719H157.611V152.414H159.916V154.182H157.611V159.65C157.611 160.204 157.732 160.611 157.973 160.871C158.214 161.125 158.594 161.252 159.115 161.252C159.324 161.252 159.59 161.236 159.916 161.203V162.951C159.499 163.023 159.118 163.059 158.773 163.059C157.608 163.059 156.771 162.837 156.264 162.395C155.762 161.952 155.512 161.216 155.512 160.188V154.182H153.822V152.414H155.512V149.719ZM160.986 155.373C160.986 154.436 161.374 153.667 162.148 153.068C162.923 152.463 163.913 152.16 165.117 152.16C166.315 152.16 167.282 152.424 168.018 152.951C168.753 153.479 169.173 154.211 169.277 155.148H167.266C167.168 154.751 166.93 154.439 166.553 154.211C166.182 153.983 165.703 153.869 165.117 153.869C164.525 153.869 164.033 153.999 163.643 154.26C163.252 154.514 163.057 154.846 163.057 155.256C163.057 155.575 163.193 155.839 163.467 156.047C163.74 156.255 164.167 156.424 164.746 156.555L166.514 156.965C167.536 157.199 168.285 157.548 168.76 158.01C169.242 158.472 169.482 159.09 169.482 159.865C169.482 160.855 169.069 161.659 168.242 162.277C167.415 162.896 166.361 163.205 165.078 163.205C163.815 163.205 162.793 162.938 162.012 162.404C161.237 161.864 160.804 161.122 160.713 160.178H162.812C162.949 160.594 163.213 160.92 163.604 161.154C163.994 161.389 164.502 161.506 165.127 161.506C165.785 161.506 166.322 161.372 166.738 161.105C167.155 160.839 167.363 160.493 167.363 160.07C167.363 159.452 166.842 159.019 165.801 158.771L163.945 158.342C162.93 158.101 162.181 157.743 161.699 157.268C161.224 156.792 160.986 156.161 160.986 155.373Z" fill="white"/>
</g>
<rect x="82.5" y="120.5" width="430" height="216" rx="11.5" stroke="url(#paint7_linear_0_1)" stroke-opacity="0.2" shape-rendering="crispEdges"/>
</g>
<rect x="446" y="315" width="44" height="44" rx="22" fill="white"/>
<path fill-rule="evenodd" clip-rule="evenodd" d="M468 331C468.414 331 468.75 331.336 468.75 331.75V336.25H473.25C473.664 336.25 474 336.586 474 337C474 337.414 473.664 337.75 473.25 337.75H468.75V342.25C468.75 342.664 468.414 343 468 343C467.586 343 467.25 342.664 467.25 342.25V337.75H462.75C462.336 337.75 462 337.414 462 337C462 336.586 462.336 336.25 462.75 336.25H467.25V331.75C467.25 331.336 467.586 331 468 331Z" fill="black"/>
<defs>
<filter id="filter0_d_0_1" x="-78" y="0" width="831" height="617" filterUnits="userSpaceOnUse" color-interpolation-filters="sRGB">
<feFlood flood-opacity="0" result="BackgroundImageFix"/>
<feColorMatrix in="SourceAlpha" type="matrix" values="0 0 0 0 0 0 0 0 0 0 0 0 0 0 0 0 0 0 127 0" result="hardAlpha"/>
<feOffset dx="40" dy="80"/>
<feGaussianBlur stdDeviation="100"/>
<feComposite in2="hardAlpha" operator="out"/>
<feColorMatrix type="matrix" values="0 0 0 0 0 0 0 0 0 0 0 0 0 0 0 0 0 0 0.15 0"/>
<feBlend mode="normal" in2="BackgroundImageFix" result="effect1_dropShadow_0_1"/>
<feBlend mode="normal" in="SourceGraphic" in2="effect1_dropShadow_0_1" result="shape"/>
</filter>
<linearGradient id="paint0_linear_0_1" x1="513" y1="120" x2="82" y2="337" gradientUnits="userSpaceOnUse">
<stop stop-color="white"/>
<stop offset="1" stop-color="white" stop-opacity="0"/>
</linearGradient>
<radialGradient id="paint1_radial_0_1" cx="0" cy="0" r="1" gradientUnits="userSpaceOnUse" gradientTransform="translate(309 193) rotate(145.586) scale(186.672 294.648)">
<stop stop-color="white"/>
<stop offset="1" stop-color="white" stop-opacity="0"/>
</radialGradient>
<radialGradient id="paint2_radial_0_1" cx="0" cy="0" r="1" gradientUnits="userSpaceOnUse" gradientTransform="translate(155 295) rotate(-29.2387) scale(196.541 310.226)">
<stop stop-color="white"/>
<stop offset="1" stop-color="white" stop-opacity="0"/>
</radialGradient>
<radialGradient id="paint3_radial_0_1" cx="0" cy="0" r="1" gradientUnits="userSpaceOnUse" gradientTransform="translate(136 193) rotate(145.586) scale(186.672 294.648)">
<stop stop-color="white"/>
<stop offset="1" stop-color="white" stop-opacity="0"/>
</radialGradient>
<radialGradient id="paint4_radial_0_1" cx="0" cy="0" r="1" gradientUnits="userSpaceOnUse" gradientTransform="translate(-18 295) rotate(-29.2387) scale(196.541 310.226)">
<stop stop-color="white"/>
<stop offset="1" stop-color="white" stop-opacity="0"/>
</radialGradient>
<radialGradient id="paint5_radial_0_1" cx="0" cy="0" r="1" gradientUnits="userSpaceOnUse" gradientTransform="translate(482 193) rotate(145.586) scale(186.672 294.648)">
<stop stop-color="white"/>
<stop offset="1" stop-color="white" stop-opacity="0"/>
</radialGradient>
<radialGradient id="paint6_radial_0_1" cx="0" cy="0" r="1" gradientUnits="userSpaceOnUse" gradientTransform="translate(328 295) rotate(-29.2387) scale(196.541 310.226)">
<stop stop-color="white"/>
<stop offset="1" stop-color="white" stop-opacity="0"/>
</radialGradient>
<linearGradient id="paint7_linear_0_1" x1="82" y1="337" x2="513" y2="126.5" gradientUnits="userSpaceOnUse">
<stop stop-color="white"/>
<stop offset="1" stop-color="white" stop-opacity="0"/>
</linearGradient>
<clipPath id="clip0_0_1">
<rect x="82" y="120" width="431" height="217" rx="12" fill="white"/>
</clipPath>
</defs>
</svg>
