<svg width="431" height="185" viewBox="0 0 431 185" fill="none" xmlns="http://www.w3.org/2000/svg">
<path d="M845 14.5C845 44.0472 758.5 -13.8018 758.5 68C710.727 68 672 44.0472 672 14.5C672 -15.0472 710.727 -39 758.5 -39C806.273 -39 845 -15.0472 845 14.5Z" fill="#1A47E5"/>
<path d="M509 14.5C509 44.0472 422.5 -13.8018 422.5 68C374.727 68 336 44.0472 336 14.5C336 -15.0472 374.727 -39 422.5 -39C470.273 -39 509 -15.0472 509 14.5Z" fill="#1A47E5"/>
<path d="M173 14.5C173 44.0472 86.5 -13.8018 86.5 68C38.7274 68 0 44.0472 0 14.5C0 -15.0472 38.7274 -39 86.5 -39C134.273 -39 173 -15.0472 173 14.5Z" fill="#1A47E5"/>
<path d="M664 131.5C664 161.047 577.5 103.198 577.5 185C529.727 185 491 161.047 491 131.5C491 101.953 529.727 78 577.5 78C625.273 78 664 101.953 664 131.5Z" fill="#1A47E5"/>
<path d="M328 131.5C328 161.047 241.5 103.198 241.5 185C193.727 185 155 161.047 155 131.5C155 101.953 193.727 78 241.5 78C289.273 78 328 101.953 328 131.5Z" fill="#1A47E5"/>
</svg>
