<svg width="100" height="100" viewBox="0 0 100 100" fill="none" xmlns="http://www.w3.org/2000/svg">
    <circle cx="50" cy="50" r="50" fill="#2F57E7" />
    <path
        d="M66.3331 41.656V38.3333C66.3331 29.3127 59.0205 22 49.9998 22C40.9791 22 33.6665 29.3127 33.6665 38.3333V41.656C29.4199 43.5094 26.6726 47.7 26.6665 52.3333V66.3333C26.6742 72.7734 31.893 77.9923 38.3331 78H61.6664C68.1065 77.9923 73.3253 72.7734 73.3331 66.3333V52.3333C73.3271 47.7 70.5797 43.5094 66.3331 41.656ZM52.3331 61.6667C52.3331 62.9554 51.2885 64 49.9998 64C48.7111 64 47.6665 62.9554 47.6665 61.6667V57C47.6665 55.7113 48.7111 54.6667 49.9998 54.6667C51.2885 54.6667 52.3331 55.7113 52.3331 57V61.6667ZM61.6665 40.6667H38.3331V38.3334C38.3331 31.8901 43.5564 26.6667 49.9998 26.6667C56.4432 26.6667 61.6665 31.89 61.6665 38.3334V40.6667Z"
        fill="url(#paint0_linear_59_1357)" />
    <defs>
        <linearGradient id="paint0_linear_59_1357" x1="49.9998" y1="22" x2="49.9998" y2="78"
            gradientUnits="userSpaceOnUse">
            <stop stop-color="white" />
            <stop offset="1" stop-color="white" stop-opacity="0" />
        </linearGradient>
    </defs>
</svg>