<svg width="129" height="40" viewBox="0 0 129 40" fill="none" xmlns="http://www.w3.org/2000/svg">
<rect width="129" height="40" rx="4" fill="#2F57E7"/>
<path d="M29.14 17.9004H20.75V23.3804C20.75 23.7904 20.41 24.1304 20 24.1304C19.59 24.1304 19.25 23.7904 19.25 23.3804V17.9004H10.86C10.38 17.9004 10 18.2804 10 18.7604C10 24.6504 14.11 28.7604 20 28.7604C25.89 28.7604 30 24.6504 30 18.7604C30 18.2804 29.62 17.9004 29.14 17.9004Z" fill="white"/>
<path d="M20.75 13.7997L22.31 15.3597C22.6 15.6497 23.08 15.6497 23.37 15.3597C23.66 15.0697 23.66 14.5897 23.37 14.2997L20.52 11.4597C20.23 11.1697 19.75 11.1697 19.46 11.4597L16.62 14.3097C16.48 14.4597 16.4 14.6497 16.4 14.8397C16.4 15.0297 16.47 15.2197 16.62 15.3697C16.91 15.6597 17.39 15.6597 17.68 15.3697L19.24 13.8097V17.8997H20.74V13.7997H20.75Z" fill="white"/>
<path d="M43.316 25V15.06H49.112V16.292H44.618V19.302H48.272V20.534H44.618V23.768H49.112V25H43.316ZM55.631 25L53.503 22.354L51.375 25H49.877L52.747 21.458L50.115 18H51.571L53.503 20.534L55.421 18H56.891L54.245 21.458L57.115 25H55.631ZM59.5548 27.926H58.3508V18H59.5548V19.078C59.7975 18.7233 60.1381 18.434 60.5768 18.21C61.0248 17.9767 61.5055 17.86 62.0188 17.86C62.9895 17.86 63.8015 18.2147 64.4548 18.924C65.1175 19.6333 65.4488 20.492 65.4488 21.5C65.4488 22.508 65.1175 23.3667 64.4548 24.076C63.8015 24.7853 62.9895 25.14 62.0188 25.14C61.5055 25.14 61.0248 25.028 60.5768 24.804C60.1381 24.5707 59.7975 24.2767 59.5548 23.922V27.926ZM60.1288 23.306C60.5768 23.7913 61.1461 24.034 61.8368 24.034C62.5275 24.034 63.0968 23.7913 63.5448 23.306C63.9928 22.8207 64.2168 22.2187 64.2168 21.5C64.2168 20.7813 63.9928 20.1793 63.5448 19.694C63.0968 19.2087 62.5275 18.966 61.8368 18.966C61.1461 18.966 60.5768 19.2087 60.1288 19.694C59.6808 20.1793 59.4568 20.7813 59.4568 21.5C59.4568 22.2187 59.6808 22.8207 60.1288 23.306ZM70.2908 25.14C69.2362 25.14 68.3588 24.79 67.6588 24.09C66.9682 23.3807 66.6228 22.5173 66.6228 21.5C66.6228 20.4827 66.9682 19.624 67.6588 18.924C68.3588 18.2147 69.2362 17.86 70.2908 17.86C71.3362 17.86 72.2042 18.2147 72.8948 18.924C73.5948 19.624 73.9448 20.4827 73.9448 21.5C73.9448 22.5173 73.5948 23.3807 72.8948 24.09C72.2042 24.79 71.3362 25.14 70.2908 25.14ZM68.5268 23.292C68.9842 23.7773 69.5722 24.02 70.2908 24.02C71.0095 24.02 71.5928 23.7773 72.0408 23.292C72.4888 22.8067 72.7128 22.2093 72.7128 21.5C72.7128 20.7907 72.4888 20.1933 72.0408 19.708C71.5928 19.2227 71.0095 18.98 70.2908 18.98C69.5722 18.98 68.9842 19.2227 68.5268 19.708C68.0788 20.1933 67.8548 20.7907 67.8548 21.5C67.8548 22.2093 68.0788 22.8067 68.5268 23.292ZM75.6731 25V18H76.8771V19.358C77.0077 18.9287 77.2597 18.5833 77.6331 18.322C78.0157 18.0607 78.4171 17.93 78.8371 17.93C79.0424 17.93 79.2244 17.9487 79.3831 17.986V19.232C79.2151 19.1573 78.9957 19.12 78.7251 19.12C78.2397 19.12 77.8104 19.33 77.4371 19.75C77.0637 20.17 76.8771 20.7627 76.8771 21.528V25H75.6731ZM83.516 25.07C82.872 25.07 82.354 24.888 81.962 24.524C81.57 24.16 81.374 23.628 81.374 22.928V19.106H79.89V18H81.374V16.054H82.578V18H84.594V19.106H82.578V22.774C82.578 23.2127 82.6713 23.5207 82.858 23.698C83.0447 23.8753 83.3387 23.964 83.74 23.964C84.0947 23.964 84.3793 23.9173 84.594 23.824V24.902C84.258 25.014 83.8987 25.07 83.516 25.07ZM92.393 25.14C91.4223 25.14 90.6057 24.7853 89.943 24.076C89.2897 23.3667 88.963 22.508 88.963 21.5C88.963 20.492 89.2897 19.6333 89.943 18.924C90.6057 18.2147 91.4223 17.86 92.393 17.86C92.9063 17.86 93.3823 17.9767 93.821 18.21C94.269 18.434 94.6143 18.7233 94.857 19.078V14.5H96.061V25H94.857V23.922C94.6143 24.2767 94.269 24.5707 93.821 24.804C93.3823 25.028 92.9063 25.14 92.393 25.14ZM92.575 24.034C93.2657 24.034 93.835 23.7913 94.283 23.306C94.731 22.8207 94.955 22.2187 94.955 21.5C94.955 20.7813 94.731 20.1793 94.283 19.694C93.835 19.2087 93.2657 18.966 92.575 18.966C91.875 18.966 91.301 19.2087 90.853 19.694C90.405 20.1793 90.181 20.7813 90.181 21.5C90.181 22.2187 90.405 22.8207 90.853 23.306C91.301 23.7913 91.875 24.034 92.575 24.034ZM101.211 25.14C100.241 25.14 99.424 24.7853 98.7614 24.076C98.108 23.3667 97.7814 22.508 97.7814 21.5C97.7814 20.492 98.108 19.6333 98.7614 18.924C99.424 18.2147 100.241 17.86 101.211 17.86C101.725 17.86 102.201 17.9767 102.639 18.21C103.087 18.434 103.433 18.7233 103.675 19.078V18H104.879V25H103.675V23.922C103.433 24.2767 103.087 24.5707 102.639 24.804C102.201 25.028 101.725 25.14 101.211 25.14ZM101.393 24.034C102.084 24.034 102.653 23.7913 103.101 23.306C103.549 22.8207 103.773 22.2187 103.773 21.5C103.773 20.7813 103.549 20.1793 103.101 19.694C102.653 19.2087 102.084 18.966 101.393 18.966C100.693 18.966 100.119 19.2087 99.6714 19.694C99.2234 20.1793 98.9994 20.7813 98.9994 21.5C98.9994 22.2187 99.2234 22.8207 99.6714 23.306C100.119 23.7913 100.693 24.034 101.393 24.034ZM109.862 25.07C109.218 25.07 108.7 24.888 108.308 24.524C107.916 24.16 107.72 23.628 107.72 22.928V19.106H106.236V18H107.72V16.054H108.924V18H110.94V19.106H108.924V22.774C108.924 23.2127 109.017 23.5207 109.204 23.698C109.39 23.8753 109.684 23.964 110.086 23.964C110.44 23.964 110.725 23.9173 110.94 23.824V24.902C110.604 25.014 110.244 25.07 109.862 25.07ZM115.266 25.14C114.295 25.14 113.479 24.7853 112.816 24.076C112.163 23.3667 111.836 22.508 111.836 21.5C111.836 20.492 112.163 19.6333 112.816 18.924C113.479 18.2147 114.295 17.86 115.266 17.86C115.779 17.86 116.255 17.9767 116.694 18.21C117.142 18.434 117.487 18.7233 117.73 19.078V18H118.934V25H117.73V23.922C117.487 24.2767 117.142 24.5707 116.694 24.804C116.255 25.028 115.779 25.14 115.266 25.14ZM115.448 24.034C116.139 24.034 116.708 23.7913 117.156 23.306C117.604 22.8207 117.828 22.2187 117.828 21.5C117.828 20.7813 117.604 20.1793 117.156 19.694C116.708 19.2087 116.139 18.966 115.448 18.966C114.748 18.966 114.174 19.2087 113.726 19.694C113.278 20.1793 113.054 20.7813 113.054 21.5C113.054 22.2187 113.278 22.8207 113.726 23.306C114.174 23.7913 114.748 24.034 115.448 24.034Z" fill="white"/>
</svg>
