<svg width="405" height="197" viewBox="0 0 405 197" fill="none" xmlns="http://www.w3.org/2000/svg">
<path d="M308 26.5C308 56.0472 221.5 -1.80176 221.5 80C173.727 80 135 56.0472 135 26.5C135 -3.04723 173.727 -27 221.5 -27C269.273 -27 308 -3.04723 308 26.5Z" fill="#111111"/>
<path d="M463 143.5C463 173.047 376.5 115.198 376.5 197C328.727 197 290 173.047 290 143.5C290 113.953 328.727 90 376.5 90C424.273 90 463 113.953 463 143.5Z" fill="#111111"/>
<path d="M65 26.5C65 56.0472 -21.5 -1.80176 -21.5 80C-69.2726 80 -108 56.0472 -108 26.5C-108 -3.04723 -69.2726 -27 -21.5 -27C26.2726 -27 65 -3.04723 65 26.5Z" fill="#111111"/>
<path d="M220 143.5C220 173.047 133.5 115.198 133.5 197C85.7274 197 47 173.047 47 143.5C47 113.953 85.7274 90 133.5 90C181.273 90 220 113.953 220 143.5Z" fill="#111111"/>
</svg>
